<mxfile host="app.diagrams.net" modified="2022-11-29T08:46:55.627Z" agent="5.0 (Windows NT 10.0; Win64; x64) AppleWebKit/537.36 (KHTML, like Gecko) Chrome/107.0.0.0 Safari/537.36" etag="zI6VR0VM5KXjZTYTQQI6" version="20.6.0" type="github">
  <diagram id="C5RBs43oDa-KdzZeNtuy" name="Page-1">
    <mxGraphModel dx="981" dy="520" grid="1" gridSize="10" guides="1" tooltips="1" connect="1" arrows="1" fold="1" page="1" pageScale="1" pageWidth="827" pageHeight="1169" math="0" shadow="0">
      <root>
        <mxCell id="WIyWlLk6GJQsqaUBKTNV-0" />
        <mxCell id="WIyWlLk6GJQsqaUBKTNV-1" parent="WIyWlLk6GJQsqaUBKTNV-0" />
        <mxCell id="zkfFHV4jXpPFQw0GAbJ--0" value="SingleTo" style="swimlane;fontStyle=1;align=center;verticalAlign=top;childLayout=stackLayout;horizontal=1;startSize=26;horizontalStack=0;resizeParent=1;resizeLast=0;collapsible=1;marginBottom=0;rounded=0;shadow=0;strokeWidth=1;" parent="WIyWlLk6GJQsqaUBKTNV-1" vertex="1">
          <mxGeometry x="430" y="270" width="160" height="104" as="geometry">
            <mxRectangle x="230" y="140" width="160" height="26" as="alternateBounds" />
          </mxGeometry>
        </mxCell>
        <mxCell id="zkfFHV4jXpPFQw0GAbJ--1" value="-  instance: SingleTo | null" style="text;align=left;verticalAlign=top;spacingLeft=4;spacingRight=4;overflow=hidden;rotatable=0;points=[[0,0.5],[1,0.5]];portConstraint=eastwest;fontStyle=4" parent="zkfFHV4jXpPFQw0GAbJ--0" vertex="1">
          <mxGeometry y="26" width="160" height="26" as="geometry" />
        </mxCell>
        <mxCell id="zkfFHV4jXpPFQw0GAbJ--2" value="+ getInstance(): SingleTon" style="text;align=left;verticalAlign=top;spacingLeft=4;spacingRight=4;overflow=hidden;rotatable=0;points=[[0,0.5],[1,0.5]];portConstraint=eastwest;rounded=0;shadow=0;html=0;fontStyle=4" parent="zkfFHV4jXpPFQw0GAbJ--0" vertex="1">
          <mxGeometry y="52" width="160" height="26" as="geometry" />
        </mxCell>
        <mxCell id="V5HsmbXFk9gRu1Bdj2jP-0" value="&lt;div style=&quot;color: rgb(166, 172, 205); background-color: rgb(41, 45, 62); font-family: Consolas, &amp;quot;Courier New&amp;quot;, monospace; font-weight: normal; font-size: 17px; line-height: 23px;&quot;&gt;&lt;div&gt;&lt;span style=&quot;color: #676e95;font-style: italic;&quot;&gt;// 单例模式，&lt;/span&gt;&lt;/div&gt;&lt;div&gt;&lt;span style=&quot;color: #676e95;font-style: italic;&quot;&gt;// 即对一个 class 只能创建一个实例，即便调用多次。&lt;/span&gt;&lt;/div&gt;&lt;div&gt;&lt;span style=&quot;color: #c792ea;&quot;&gt;class&lt;/span&gt;&lt;span style=&quot;color: #a6accd;&quot;&gt; &lt;/span&gt;&lt;span style=&quot;color: #ffcb6b;&quot;&gt;SingleTon&lt;/span&gt;&lt;span style=&quot;color: #a6accd;&quot;&gt; &lt;/span&gt;&lt;span style=&quot;color: #89ddff;&quot;&gt;{&lt;/span&gt;&lt;/div&gt;&lt;div&gt;&lt;span style=&quot;color: #89ddff;&quot;&gt;&amp;nbsp; &lt;/span&gt;&lt;span style=&quot;color: #676e95;font-style: italic;&quot;&gt;// 单例对象&lt;/span&gt;&lt;/div&gt;&lt;div&gt;&lt;span style=&quot;color: #a6accd;&quot;&gt;&amp;nbsp; &lt;/span&gt;&lt;span style=&quot;color: #c792ea;&quot;&gt;private&lt;/span&gt;&lt;span style=&quot;color: #a6accd;&quot;&gt; &lt;/span&gt;&lt;span style=&quot;color: #c792ea;&quot;&gt;static&lt;/span&gt;&lt;span style=&quot;color: #a6accd;&quot;&gt; &lt;/span&gt;&lt;span style=&quot;color: #a6accd;&quot;&gt;instance&lt;/span&gt;&lt;span style=&quot;color: #89ddff;&quot;&gt;:&lt;/span&gt;&lt;span style=&quot;color: #a6accd;&quot;&gt; &lt;/span&gt;&lt;span style=&quot;color: #ffcb6b;&quot;&gt;SingleTon&lt;/span&gt;&lt;span style=&quot;color: #a6accd;&quot;&gt; &lt;/span&gt;&lt;span style=&quot;color: #89ddff;&quot;&gt;|&lt;/span&gt;&lt;span style=&quot;color: #a6accd;&quot;&gt; &lt;/span&gt;&lt;span style=&quot;color: #ffcb6b;&quot;&gt;null&lt;/span&gt;&lt;span style=&quot;color: #89ddff;&quot;&gt;;&lt;/span&gt;&lt;/div&gt;&lt;div&gt;&lt;span style=&quot;color: #a6accd;&quot;&gt;&amp;nbsp; &lt;/span&gt;&lt;span style=&quot;color: #a6accd;&quot;&gt;name&lt;/span&gt;&lt;span style=&quot;color: #89ddff;&quot;&gt;:&lt;/span&gt;&lt;span style=&quot;color: #a6accd;&quot;&gt; &lt;/span&gt;&lt;span style=&quot;color: #ffcb6b;&quot;&gt;string&lt;/span&gt;&lt;span style=&quot;color: #89ddff;&quot;&gt;;&lt;/span&gt;&lt;/div&gt;&lt;br&gt;&lt;div&gt;&lt;span style=&quot;color: #89ddff;&quot;&gt;&amp;nbsp; &lt;/span&gt;&lt;span style=&quot;color: #676e95;font-style: italic;&quot;&gt;// private 无法在外面实例化 new&lt;/span&gt;&lt;/div&gt;&lt;div&gt;&lt;span style=&quot;color: #a6accd;&quot;&gt;&amp;nbsp; &lt;/span&gt;&lt;span style=&quot;color: #c792ea;&quot;&gt;private&lt;/span&gt;&lt;span style=&quot;color: #a6accd;&quot;&gt; &lt;/span&gt;&lt;span style=&quot;color: #c792ea;&quot;&gt;constructor&lt;/span&gt;&lt;span style=&quot;color: #89ddff;&quot;&gt;()&lt;/span&gt;&lt;span style=&quot;color: #a6accd;&quot;&gt; &lt;/span&gt;&lt;span style=&quot;color: #89ddff;&quot;&gt;{}&lt;/span&gt;&lt;/div&gt;&lt;br&gt;&lt;div&gt;&lt;span style=&quot;color: #89ddff;&quot;&gt;&amp;nbsp; &lt;/span&gt;&lt;span style=&quot;color: #676e95;font-style: italic;&quot;&gt;// 获取单例&lt;/span&gt;&lt;/div&gt;&lt;div&gt;&lt;span style=&quot;color: #a6accd;&quot;&gt;&amp;nbsp; &lt;/span&gt;&lt;span style=&quot;color: #c792ea;&quot;&gt;static&lt;/span&gt;&lt;span style=&quot;color: #a6accd;&quot;&gt; &lt;/span&gt;&lt;span style=&quot;color: #82aaff;&quot;&gt;getInstance&lt;/span&gt;&lt;span style=&quot;color: #89ddff;&quot;&gt;():&lt;/span&gt;&lt;span style=&quot;color: #a6accd;&quot;&gt; &lt;/span&gt;&lt;span style=&quot;color: #ffcb6b;&quot;&gt;SingleTon&lt;/span&gt;&lt;span style=&quot;color: #a6accd;&quot;&gt; &lt;/span&gt;&lt;span style=&quot;color: #89ddff;&quot;&gt;{&lt;/span&gt;&lt;/div&gt;&lt;div&gt;&lt;span style=&quot;color: #f07178;&quot;&gt;&amp;nbsp; &amp;nbsp; &lt;/span&gt;&lt;span style=&quot;color: #89ddff;font-style: italic;&quot;&gt;if&lt;/span&gt;&lt;span style=&quot;color: #f07178;&quot;&gt; (&lt;/span&gt;&lt;span style=&quot;color: #ffcb6b;&quot;&gt;SingleTon&lt;/span&gt;&lt;span style=&quot;color: #89ddff;&quot;&gt;.&lt;/span&gt;&lt;span style=&quot;color: #a6accd;&quot;&gt;instance&lt;/span&gt;&lt;span style=&quot;color: #f07178;&quot;&gt; &lt;/span&gt;&lt;span style=&quot;color: #89ddff;&quot;&gt;==&lt;/span&gt;&lt;span style=&quot;color: #f07178;&quot;&gt; &lt;/span&gt;&lt;span style=&quot;color: #89ddff;&quot;&gt;null&lt;/span&gt;&lt;span style=&quot;color: #f07178;&quot;&gt;) &lt;/span&gt;&lt;span style=&quot;color: #89ddff;&quot;&gt;{&lt;/span&gt;&lt;/div&gt;&lt;div&gt;&lt;span style=&quot;color: #f07178;&quot;&gt;&amp;nbsp; &amp;nbsp; &amp;nbsp; &lt;/span&gt;&lt;span style=&quot;color: #ffcb6b;&quot;&gt;SingleTon&lt;/span&gt;&lt;span style=&quot;color: #89ddff;&quot;&gt;.&lt;/span&gt;&lt;span style=&quot;color: #a6accd;&quot;&gt;instance&lt;/span&gt;&lt;span style=&quot;color: #f07178;&quot;&gt; &lt;/span&gt;&lt;span style=&quot;color: #89ddff;&quot;&gt;=&lt;/span&gt;&lt;span style=&quot;color: #f07178;&quot;&gt; &lt;/span&gt;&lt;span style=&quot;color: #89ddff;&quot;&gt;new&lt;/span&gt;&lt;span style=&quot;color: #f07178;&quot;&gt; &lt;/span&gt;&lt;span style=&quot;color: #ffcb6b;&quot;&gt;SingleTon&lt;/span&gt;&lt;span style=&quot;color: #f07178;&quot;&gt;()&lt;/span&gt;&lt;span style=&quot;color: #89ddff;&quot;&gt;;&lt;/span&gt;&lt;/div&gt;&lt;div&gt;&lt;span style=&quot;color: #f07178;&quot;&gt;&amp;nbsp; &amp;nbsp; &lt;/span&gt;&lt;span style=&quot;color: #89ddff;&quot;&gt;}&lt;/span&gt;&lt;/div&gt;&lt;div&gt;&lt;span style=&quot;color: #89ddff;&quot;&gt;&amp;nbsp; &amp;nbsp; &lt;/span&gt;&lt;span style=&quot;color: #676e95;font-style: italic;&quot;&gt;// 单例模式&lt;/span&gt;&lt;/div&gt;&lt;div&gt;&lt;span style=&quot;color: #f07178;&quot;&gt;&amp;nbsp; &amp;nbsp; &lt;/span&gt;&lt;span style=&quot;color: #89ddff;font-style: italic;&quot;&gt;return&lt;/span&gt;&lt;span style=&quot;color: #f07178;&quot;&gt; &lt;/span&gt;&lt;span style=&quot;color: #ffcb6b;&quot;&gt;SingleTon&lt;/span&gt;&lt;span style=&quot;color: #89ddff;&quot;&gt;.&lt;/span&gt;&lt;span style=&quot;color: #a6accd;&quot;&gt;instance&lt;/span&gt;&lt;span style=&quot;color: #89ddff;&quot;&gt;;&lt;/span&gt;&lt;/div&gt;&lt;div&gt;&lt;span style=&quot;color: #f07178;&quot;&gt;&amp;nbsp; &lt;/span&gt;&lt;span style=&quot;color: #89ddff;&quot;&gt;}&lt;/span&gt;&lt;/div&gt;&lt;div&gt;&lt;span style=&quot;color: #89ddff;&quot;&gt;}&lt;/span&gt;&lt;/div&gt;&lt;div&gt;&lt;span style=&quot;color: #89ddff;&quot;&gt;&lt;br&gt;&lt;/span&gt;&lt;/div&gt;&lt;span style=&quot;color: rgb(103, 110, 149); font-style: italic;&quot;&gt;// 正确获取单例对象的方法&lt;/span&gt;&lt;br&gt;&lt;div&gt;&lt;span style=&quot;color: #c792ea;&quot;&gt;const&lt;/span&gt;&lt;span style=&quot;color: #a6accd;&quot;&gt; &lt;/span&gt;&lt;span style=&quot;color: #a6accd;&quot;&gt;s1&lt;/span&gt;&lt;span style=&quot;color: #a6accd;&quot;&gt; &lt;/span&gt;&lt;span style=&quot;color: #89ddff;&quot;&gt;=&lt;/span&gt;&lt;span style=&quot;color: #a6accd;&quot;&gt; &lt;/span&gt;&lt;span style=&quot;color: #ffcb6b;&quot;&gt;SingleTon&lt;/span&gt;&lt;span style=&quot;color: #89ddff;&quot;&gt;.&lt;/span&gt;&lt;span style=&quot;color: #82aaff;&quot;&gt;getInstance&lt;/span&gt;&lt;span style=&quot;color: #a6accd;&quot;&gt;()&lt;/span&gt;&lt;span style=&quot;color: #89ddff;&quot;&gt;;&lt;/span&gt;&lt;span style=&quot;color: #a6accd;&quot;&gt;&amp;nbsp;&lt;/span&gt;&lt;/div&gt;&lt;div&gt;&lt;span style=&quot;color: #c792ea;&quot;&gt;const&lt;/span&gt;&lt;span style=&quot;color: #a6accd;&quot;&gt; &lt;/span&gt;&lt;span style=&quot;color: #a6accd;&quot;&gt;s2&lt;/span&gt;&lt;span style=&quot;color: #a6accd;&quot;&gt; &lt;/span&gt;&lt;span style=&quot;color: #89ddff;&quot;&gt;=&lt;/span&gt;&lt;span style=&quot;color: #a6accd;&quot;&gt; &lt;/span&gt;&lt;span style=&quot;color: #ffcb6b;&quot;&gt;SingleTon&lt;/span&gt;&lt;span style=&quot;color: #89ddff;&quot;&gt;.&lt;/span&gt;&lt;span style=&quot;color: #82aaff;&quot;&gt;getInstance&lt;/span&gt;&lt;span style=&quot;color: #a6accd;&quot;&gt;()&lt;/span&gt;&lt;span style=&quot;color: #89ddff;&quot;&gt;;&lt;/span&gt;&lt;/div&gt;&lt;div&gt;&lt;span style=&quot;color: #a6accd;&quot;&gt;console&lt;/span&gt;&lt;span style=&quot;color: #89ddff;&quot;&gt;.&lt;/span&gt;&lt;span style=&quot;color: #82aaff;&quot;&gt;log&lt;/span&gt;&lt;span style=&quot;color: #a6accd;&quot;&gt;(&lt;/span&gt;&lt;span style=&quot;color: #a6accd;&quot;&gt;s1&lt;/span&gt;&lt;span style=&quot;color: #a6accd;&quot;&gt; &lt;/span&gt;&lt;span style=&quot;color: #89ddff;&quot;&gt;===&lt;/span&gt;&lt;span style=&quot;color: #a6accd;&quot;&gt; &lt;/span&gt;&lt;span style=&quot;color: #a6accd;&quot;&gt;s2&lt;/span&gt;&lt;span style=&quot;color: #a6accd;&quot;&gt;)&lt;/span&gt;&lt;span style=&quot;color: #89ddff;&quot;&gt;;&lt;/span&gt;&lt;span style=&quot;color: #a6accd;&quot;&gt; &lt;/span&gt;&lt;span style=&quot;color: #676e95;font-style: italic;&quot;&gt;// true&lt;/span&gt;&lt;/div&gt;&lt;br&gt;&lt;div&gt;&lt;span style=&quot;color: #676e95;font-style: italic;&quot;&gt;// SingleTon.instance // 报错&lt;/span&gt;&lt;/div&gt;&lt;div&gt;&lt;span style=&quot;color: #676e95;font-style: italic;&quot;&gt;// const s1 = new SingleTon(); // 报错&lt;/span&gt;&lt;/div&gt;&lt;br&gt;&lt;/div&gt;" style="text;whiteSpace=wrap;html=1;" vertex="1" parent="WIyWlLk6GJQsqaUBKTNV-1">
          <mxGeometry x="770" y="70" width="440" height="650" as="geometry" />
        </mxCell>
      </root>
    </mxGraphModel>
  </diagram>
</mxfile>
